<svg xmlns="http://www.w3.org/2000/svg" version="1.1" xmlns:xlink="http://www.w3.org/1999/xlink" xmlns:svgjs="http://svgjs.com/svgjs" width="780.000000pt" height="873.000000pt"><svg version="1.0" xmlns="http://www.w3.org/2000/svg" width="780.000000pt" height="873.000000pt" viewBox="0 0 780.000000 873.000000" preserveAspectRatio="xMidYMid meet">

<g transform="translate(0.000000,873.000000) scale(0.100000,-0.100000)" fill="#000000" stroke="none">
<path d="M8 8720 c8 -9 12 -47 12 -107 0 -96 17 -130 22 -45 2 34 7 47 18 47
11 0 16 -13 18 -47 4 -60 20 -63 24 -5 2 29 8 42 18 42 10 0 16 -13 18 -42 4
-51 19 -57 24 -10 2 20 8 32 18 32 12 0 16 -21 21 -110 l5 -110 2 106 c2 86
-1 109 -13 119 -12 10 -19 10 -27 2 -8 -8 -16 -5 -29 11 -14 18 -20 19 -30 10
-10 -10 -16 -9 -31 4 -14 13 -20 13 -33 3 -13 -11 -15 -6 -15 38 0 35 -5 53
-17 63 -15 11 -16 11 -5 -1z"></path>
<path d="M190 8353 c0 -6 -12 -23 -27 -38 -24 -24 -25 -26 -6 -16 24 12 48 49
39 59 -3 3 -6 1 -6 -5z"></path>
<path d="M10 8290 c8 -5 20 -10 25 -10 6 0 3 5 -5 10 -8 5 -19 10 -25 10 -6 0
-3 -5 5 -10z"></path>
<path d="M63 8273 c9 -2 23 -2 30 0 6 3 -1 5 -18 5 -16 0 -22 -2 -12 -5z"></path>
<path d="M3697 7994 c-71 -22 -150 -103 -171 -173 -20 -68 -20 -94 0 -162 34
-116 164 -200 287 -186 141 17 249 151 234 293 -17 168 -189 280 -350 228z
m137 -149 c84 -40 88 -168 6 -210 -49 -25 -96 -19 -136 18 -62 57 -56 136 15
184 40 27 71 29 115 8z"></path>
<path d="M4275 7531 c-52 -13 -91 -39 -132 -85 -143 -163 -26 -416 192 -416
225 0 337 263 181 428 -17 19 -48 42 -68 53 -42 21 -129 32 -173 20z m138
-181 c38 -43 37 -97 -2 -139 -24 -26 -36 -31 -76 -31 -64 0 -105 39 -105 100
0 35 6 48 35 77 32 32 39 35 78 30 30 -4 50 -15 70 -37z"></path>
<path d="M3572 7343 c-45 -22 -100 -89 -108 -130 -17 -93 20 -173 102 -220 78
-45 185 -19 248 60 40 50 48 135 18 193 -24 47 -67 89 -105 103 -41 16 -117
13 -155 -6z m116 -145 c7 -7 12 -21 12 -33 0 -12 -5 -26 -12 -33 -7 -7 -21
-12 -33 -12 -12 0 -26 5 -33 12 -7 7 -12 21 -12 33 0 12 5 26 12 33 7 7 21 12
33 12 12 0 26 -5 33 -12z"></path>
<path d="M3385 6846 c-63 -28 -105 -101 -105 -183 0 -73 24 -105 137 -183 50
-35 99 -103 124 -176 18 -51 19 -94 19 -853 0 -874 1 -863 -60 -1063 -17 -53
-30 -99 -30 -102 0 -3 16 -6 36 -6 26 0 43 -8 65 -30 l30 -29 10 27 c6 15 13
41 16 57 3 17 11 44 19 62 8 17 24 74 36 125 22 91 22 111 26 913 2 583 0 837
-8 880 -25 130 -118 271 -221 334 -43 27 -50 36 -47 59 l3 27 225 5 c215 5
226 6 258 28 17 13 32 32 32 43 0 22 -28 26 -36 4 -9 -22 -44 -19 -44 4 0 28
27 51 60 51 41 0 60 -24 60 -75 0 -30 5 -45 16 -49 9 -3 125 -6 259 -6 212 0
244 -2 249 -16 12 -30 6 -43 -31 -65 -61 -36 -142 -120 -178 -184 -73 -131
-69 -83 -73 -943 -3 -849 -1 -901 56 -1112 26 -97 30 -105 54 -108 25 -3 26
-6 27 -67 0 -44 7 -76 20 -102 l20 -38 1 103 0 102 30 0 c17 0 30 2 30 5 0 3
-13 52 -29 109 -62 220 -62 223 -59 1086 l3 785 24 59 c26 64 101 148 178 198
55 36 76 78 75 150 -1 74 -25 123 -75 156 l-41 27 -565 2 c-457 2 -572 0 -596
-11z"></path>
<path d="M3882 5439 c-141 -70 -143 -272 -3 -346 157 -82 333 67 277 235 -38
112 -166 164 -274 111z m131 -151 c18 -28 -7 -68 -43 -68 -38 0 -59 35 -40 69
14 27 67 26 83 -1z"></path>
<path d="M3930 4764 c-144 -63 -163 -262 -32 -345 91 -58 210 -32 271 57 29
41 38 117 21 168 -35 107 -158 164 -260 120z m108 -146 c30 -30 -5 -96 -44
-81 -52 19 -43 93 11 93 12 0 26 -5 33 -12z"></path>
<path d="M4490 4079 l0 -155 313 -550 c503 -881 626 -1098 632 -1116 6 -14
-10 -22 -92 -47 -131 -41 -217 -60 -343 -77 -226 -30 -379 -13 -638 70 -250
80 -312 91 -532 90 -163 -1 -213 -5 -420 -38 -129 -20 -349 -59 -487 -87 -172
-33 -278 -49 -331 -49 -83 0 -142 14 -142 34 0 12 29 63 485 866 572 1007 516
902 495 925 -49 53 -32 129 41 182 35 25 49 42 49 59 0 17 -6 24 -20 24 -13 0
-20 -7 -20 -20 0 -13 -7 -20 -20 -21 -11 -1 -26 -2 -32 -3 -7 0 -42 -53 -79
-116 -67 -117 -649 -1143 -854 -1505 -62 -110 -254 -447 -425 -750 -172 -302
-382 -672 -466 -821 -107 -188 -158 -289 -169 -333 -27 -104 -2 -188 77 -255
83 -71 -108 -66 2462 -66 1549 0 2333 4 2358 10 149 42 223 193 170 345 -10
28 -202 372 -426 765 -225 393 -475 833 -557 976 -81 144 -331 583 -555 975
-224 393 -422 743 -440 779 l-33 65 -1 -156z m-380 -1954 c36 -9 133 -38 215
-65 209 -68 299 -84 480 -83 219 0 378 27 603 100 62 20 114 34 115 32 2 -2
192 -335 422 -739 349 -613 419 -742 423 -781 5 -55 -8 -83 -51 -106 -30 -17
-157 -18 -2312 -21 -1603 -2 -2295 1 -2332 8 -58 12 -103 54 -103 94 0 45 26
95 248 486 123 217 296 522 385 678 142 251 163 283 181 277 184 -52 197 -52
616 29 197 38 536 93 670 110 79 10 376 -3 440 -19z"></path>
<path d="M3496 4074 c-9 -8 -16 -30 -16 -47 l0 -32 19 25 c21 26 33 70 20 70
-4 0 -15 -7 -23 -16z"></path>
<path d="M3436 3588 c-40 -37 -406 -692 -406 -727 0 -36 33 -71 68 -71 13 0
36 12 51 28 44 45 401 685 401 720 0 21 -8 37 -26 51 -34 27 -57 26 -88 -1z"></path>
<path d="M4320 3214 c-277 -74 -309 -452 -49 -569 55 -24 70 -27 143 -23 99 6
145 27 209 98 53 59 77 121 77 201 0 199 -189 345 -380 293z m150 -157 c52
-27 80 -75 80 -135 0 -144 -168 -211 -267 -106 -94 100 -23 258 118 263 14 1
45 -9 69 -22z"></path>
<path d="M3773 2819 c-106 -52 -138 -207 -60 -296 97 -110 261 -91 328 39 21
41 25 111 8 155 -14 38 -67 92 -106 109 -47 20 -121 17 -170 -7z m135 -168 c4
-28 -14 -51 -42 -51 -47 0 -63 57 -24 84 19 13 25 14 43 2 11 -7 21 -23 23
-35z"></path>
<path d="M4776 2705 c-135 -48 -173 -218 -72 -320 103 -103 263 -70 320 67 40
95 -6 205 -104 247 -56 24 -89 26 -144 6z m98 -151 c21 -21 20 -47 -3 -68 -41
-37 -97 14 -66 60 18 28 46 31 69 8z"></path>
</g>
</svg><style>@media (prefers-color-scheme: light) { :root { filter: none; } }
@media (prefers-color-scheme: dark) { :root { filter: invert(100%); } }
</style></svg>